<?xml version="1.0" standalone="no"?>
<!DOCTYPE svg PUBLIC "-//W3C//DTD SVG 20010904//EN"
 "http://www.w3.org/TR/2001/REC-SVG-20010904/DTD/svg10.dtd">
<svg version="1.0" xmlns="http://www.w3.org/2000/svg"
 width="500.000000pt" height="500.000000pt" viewBox="0 0 500.000000 500.000000"
 preserveAspectRatio="xMidYMid meet">

<g transform="translate(0.000000,500.000000) scale(0.100000,-0.100000)"
fill="#000000" stroke="none">
<path d="M716 2829 c-37 -29 -49 -55 -36 -79 13 -24 42 -26 75 -4 22 14 27 14
64 -5 54 -28 93 -27 131 5 22 19 30 34 28 52 -5 44 -36 52 -79 20 -13 -9 -27
-7 -67 10 -63 27 -82 27 -116 1z"/>
<path d="M3552 2788 c-7 -7 -12 -38 -12 -70 l0 -58 -34 0 c-81 0 -89 -76 -10
-89 l39 -6 5 -165 c4 -141 8 -170 25 -199 38 -64 131 -89 210 -57 46 20 58 61
25 88 -13 11 -30 16 -39 13 -9 -4 -30 -9 -48 -12 -25 -4 -34 -1 -47 20 -14 20
-16 49 -14 168 l3 144 50 3 c115 7 112 92 -3 92 l-52 0 0 58 c0 66 -11 82 -55
82 -17 0 -36 -5 -43 -12z"/>
<path d="M798 2661 c-15 -5 -43 -19 -62 -30 l-34 -21 -16 25 c-20 30 -65 34
-89 7 -15 -16 -17 -48 -17 -238 0 -244 5 -264 60 -264 50 0 60 27 60 173 0
115 2 134 22 169 67 119 230 114 258 -8 5 -21 10 -101 10 -176 0 -125 2 -138
19 -148 28 -15 57 -12 76 7 14 14 16 39 13 187 -3 161 -5 174 -28 216 -39 69
-94 102 -177 106 -37 2 -80 0 -95 -5z"/>
<path d="M1405 2651 c24 -28 22 -89 -7 -144 -10 -21 -18 -40 -16 -41 2 -1 23
-12 48 -25 25 -14 49 -30 53 -38 24 -39 37 18 17 71 -15 40 -1 31 16 -11 11
-26 14 -52 9 -90 -8 -67 8 -70 28 -5 26 80 28 105 13 157 l-15 50 29 -34 c34
-40 54 -116 45 -170 -8 -48 -54 -124 -90 -147 -23 -15 -25 -18 -10 -27 13 -7
25 -1 51 24 53 52 78 113 78 189 -2 133 -91 235 -224 256 l-45 7 20 -22z"/>
<path d="M1898 2656 c-21 -7 -49 -21 -64 -31 -14 -9 -26 -15 -27 -13 -17 34
-29 43 -54 46 -60 6 -63 -4 -63 -257 0 -208 2 -229 18 -244 22 -20 65 -22 80
-4 5 6 12 75 14 153 3 134 5 143 31 182 47 71 133 100 197 67 52 -27 60 -58
60 -222 0 -118 3 -153 16 -171 19 -28 64 -29 88 -3 16 18 18 38 15 183 -4 152
-6 167 -30 213 -37 73 -90 107 -176 111 -43 3 -82 -1 -105 -10z"/>
<path d="M2441 2654 c-56 -21 -115 -82 -135 -141 -20 -59 -21 -168 -1 -222 21
-62 50 -97 103 -128 63 -37 175 -39 240 -5 38 20 42 21 42 5 0 -32 -40 -84
-75 -99 -53 -22 -126 -18 -166 9 -52 35 -69 39 -95 22 -31 -20 -31 -57 -1 -86
72 -70 220 -85 325 -33 39 20 67 43 87 72 l30 44 3 265 c3 239 2 267 -14 284
-21 23 -61 25 -85 3 -16 -14 -20 -14 -51 2 -46 24 -152 28 -207 8z m175 -100
c62 -29 74 -55 74 -156 0 -85 -1 -91 -28 -118 -34 -34 -102 -54 -150 -45 -93
17 -141 150 -91 253 37 76 117 103 195 66z"/>
<path d="M3035 2655 c-87 -33 -145 -120 -153 -226 -9 -126 36 -226 120 -271
60 -31 165 -32 228 -1 44 22 44 22 62 3 22 -24 61 -26 82 -4 14 13 16 50 16
249 0 221 -1 235 -19 245 -29 15 -59 12 -78 -8 -17 -16 -20 -16 -58 3 -51 25
-147 30 -200 10z m162 -96 c15 -5 40 -22 56 -37 26 -24 27 -30 27 -120 0 -89
-1 -95 -28 -122 -16 -16 -48 -34 -71 -40 -105 -28 -183 39 -184 159 0 75 39
144 93 164 25 9 77 8 107 -4z"/>
<path d="M3876 2641 c-16 -17 -17 -39 -14 -183 3 -152 5 -167 29 -213 38 -74
99 -109 193 -110 60 0 79 4 121 28 29 17 51 24 53 17 13 -38 68 -53 96 -24 14
13 16 50 16 244 0 246 -3 260 -53 260 -48 0 -52 -11 -57 -162 -6 -160 -17
-193 -80 -236 -47 -31 -75 -37 -121 -23 -66 20 -73 42 -79 229 -4 147 -7 165
-24 178 -27 20 -60 18 -80 -5z"/>
</g>
</svg>
